<svg width="140" height="90" viewBox="0 0 140 90" fill="none" xmlns="http://www.w3.org/2000/svg">
<path d="M62.5434 44.0578H56.4026V11.5141H62.4976V12.7517C64.4835 11.5599 66.2249 10.9641 67.7219 10.9641C69.2801 10.9641 70.6243 11.1933 71.7548 11.6516C72.8852 12.0794 73.817 12.7822 74.5502 13.7601C75.2835 14.7074 75.8334 15.9602 76.2 17.5187C76.5666 19.0771 76.7499 20.9564 76.7499 23.1565C76.7499 25.3566 76.5514 27.2206 76.1542 28.7485C75.757 30.2458 75.1307 31.4681 74.2753 32.4154C73.4504 33.3321 72.3811 33.9891 71.0673 34.3864C69.7536 34.7836 68.1802 34.9822 66.3471 34.9822C65.3389 34.9822 64.2543 34.8906 63.0934 34.7072L62.5434 34.6156V44.0578ZM66.5304 16.4644C65.4 16.4644 64.2543 16.6936 63.0934 17.152L62.5434 17.3811V29.3902C63.9183 29.5736 65.0334 29.6652 65.8888 29.6652C67.6608 29.6652 68.8676 29.1458 69.5092 28.1068C70.1813 27.0679 70.5174 25.2955 70.5174 22.7898C70.5174 18.5729 69.1884 16.4644 66.5304 16.4644Z" fill="#232830"/>
<path d="M99.8445 25.5858H86.3712C86.4018 26.9915 86.7684 28.0151 87.4711 28.6568C88.1737 29.268 89.2125 29.5736 90.5873 29.5736C93.4286 29.5736 95.9644 29.4819 98.1947 29.2986L99.4779 29.161L99.5695 33.6988C96.1172 34.5544 92.9398 34.9822 90.0374 34.9822C86.5851 34.9822 84.0798 34.0655 82.5217 32.2321C80.9636 30.3986 80.1845 27.4193 80.1845 23.294C80.1845 15.0741 83.5604 10.9641 90.3124 10.9641C96.9726 10.9641 100.303 14.4171 100.303 21.3231L99.8445 25.5858ZM86.3254 20.9105H94.2535C94.2535 19.0771 93.9633 17.8089 93.3828 17.1061C92.8329 16.3727 91.8247 16.0061 90.3582 16.0061C88.8917 16.0061 87.853 16.388 87.2419 17.152C86.6614 17.8853 86.3559 19.1382 86.3254 20.9105Z" fill="#232830"/>
<path d="M110.832 17.2895V34.4322H104.691V11.5141H110.786V12.7975C112.833 11.5752 114.743 10.9641 116.515 10.9641C118.043 10.9641 119.31 11.1933 120.319 11.6516C121.357 12.0794 122.182 12.7517 122.793 13.6684C123.435 14.5851 123.893 15.731 124.168 17.1061C124.443 18.4812 124.581 20.116 124.581 22.0106V34.4322H118.44V22.1939C118.44 20.2383 118.211 18.8021 117.752 17.8853C117.294 16.9381 116.377 16.4644 115.003 16.4644C113.781 16.4644 112.574 16.6783 111.382 17.1061L110.832 17.2895Z" fill="#232830"/>
<path d="M75.2275 56.3521V65.886C75.2886 66.6194 75.4108 67.1389 75.5941 67.4445C75.7774 67.7195 76.1593 67.9181 76.7398 68.0403L76.5564 72.6698C74.9983 72.6698 73.7457 72.5628 72.7986 72.3489C71.8821 72.135 70.9502 71.7072 70.0031 71.0655C67.7729 72.135 65.5273 72.6698 63.2665 72.6698C58.531 72.6698 56.1632 70.1641 56.1632 65.1526C56.1632 62.7081 56.8201 60.9816 58.1338 59.9732C59.4475 58.9342 61.4639 58.3231 64.183 58.1397L69.0866 57.773V56.3521C69.0866 55.4048 68.8727 54.7631 68.445 54.427C68.0173 54.0603 67.3299 53.8769 66.3828 53.8769L57.7672 54.2436L57.5839 49.9809C60.8835 49.0947 63.9997 48.6516 66.9327 48.6516C69.8962 48.6516 72.0195 49.2628 73.3027 50.4851C74.5859 51.7074 75.2275 53.663 75.2275 56.3521ZM69.0866 62.0358L64.9163 62.4025C63.2054 62.5553 62.3499 63.472 62.3499 65.1526C62.3499 66.8333 63.0985 67.6736 64.5955 67.6736C65.7564 67.6736 67.0243 67.4903 68.3992 67.1236L69.0866 66.9403V62.0358Z" fill="#232830"/>
<path d="M97.6253 49.8434L97.5336 54.9312C95.6089 54.6867 93.9896 54.5034 92.6759 54.3811C91.3927 54.2589 90.3693 54.1978 89.6055 54.1978C88.0779 54.1978 87.1002 54.3353 86.6725 54.6103C86.2142 54.8853 85.9851 55.3131 85.9851 55.8937C85.9851 56.4743 86.2906 56.8869 86.9016 57.1313C87.2072 57.2535 87.7265 57.4063 88.4598 57.5897C89.2236 57.7425 90.2318 57.9258 91.4844 58.1397C92.7065 58.3536 93.7452 58.6439 94.6007 59.0106C95.4561 59.3467 96.1588 59.7898 96.7087 60.3398C97.2586 60.8899 97.6558 61.5621 97.9002 62.3566C98.1446 63.1511 98.2668 64.1137 98.2668 65.2443C98.2668 70.1946 95.1964 72.6698 89.0555 72.6698C87.0697 72.6698 84.6255 72.3948 81.7231 71.8447L80.2567 71.5697L80.44 66.4361C82.3647 66.6805 83.9687 66.8639 85.2519 66.9861C86.5656 67.1083 87.6043 67.1694 88.3681 67.1694C89.8651 67.1694 90.8734 67.0167 91.3927 66.7111C91.9121 66.4361 92.1718 66.0083 92.1718 65.4277C92.1718 64.8471 91.8968 64.4193 91.3469 64.1443C90.797 63.8998 89.3305 63.5637 86.9475 63.1359C85.756 62.9525 84.7172 62.7081 83.8312 62.4025C82.9452 62.0663 82.212 61.6385 81.6315 61.1191C81.051 60.569 80.608 59.8968 80.3025 59.1023C80.0275 58.2772 79.89 57.2535 79.89 56.0312C79.89 54.8089 80.1039 53.7394 80.5316 52.8227C80.9899 51.906 81.6009 51.1421 82.3647 50.5309C83.1591 49.9198 84.0909 49.4614 85.1602 49.1558C86.2601 48.8502 87.4516 48.6975 88.7347 48.6975C89.6207 48.6975 90.6748 48.7738 91.8968 48.9266C93.1495 49.0489 94.5548 49.2628 96.113 49.5683L97.6253 49.8434Z" fill="#232830"/>
<path d="M121.212 63.2734H107.738C107.769 64.679 108.136 65.7027 108.838 66.3444C109.541 66.9555 110.58 67.2611 111.955 67.2611C114.796 67.2611 117.332 67.1694 119.562 66.9861L120.845 66.8486L120.937 71.3864C117.484 72.242 114.307 72.6698 111.405 72.6698C107.952 72.6698 105.447 71.7531 103.889 69.9196C102.331 68.0862 101.552 65.1068 101.552 60.9816C101.552 52.7616 104.928 48.6516 111.68 48.6516C118.34 48.6516 121.67 52.1046 121.67 59.0106L121.212 63.2734ZM107.693 58.5981H115.621C115.621 56.7646 115.331 55.4965 114.75 54.7937C114.2 54.0603 113.192 53.6936 111.725 53.6936C110.259 53.6936 109.22 54.0756 108.609 54.8395C108.029 55.5729 107.723 56.8257 107.693 58.5981Z" fill="#232830"/>
<path d="M33.7434 38.8478C29.8023 38.8478 26.4263 38.2366 23.6156 37.0143C20.8354 35.7615 18.6967 33.9891 17.1997 31.6973C15.7332 29.4055 15 26.6553 15 23.4468C15 20.2077 15.7332 17.4423 17.1997 15.1504C18.6967 12.8586 20.8354 11.1016 23.6156 9.87928C26.4263 8.62643 29.8023 8 33.7434 8C37.7151 8 41.0911 8.62643 43.8713 9.87928C46.6515 11.1016 48.7748 12.8586 50.2413 15.1504C51.7383 17.4423 52.4869 20.2077 52.4869 23.4468C52.4869 26.6553 51.7383 29.4055 50.2413 31.6973C48.7748 33.9891 46.6515 35.7615 43.8713 37.0143C41.0911 38.2366 37.7151 38.8478 33.7434 38.8478ZM33.7434 33.5766C36.1876 33.5766 38.3262 33.2099 40.1593 32.4765C42.0229 31.7432 43.4741 30.6278 44.5129 29.1305C45.5822 27.6332 46.1168 25.7386 46.1168 23.4468C46.1168 21.155 45.5822 19.2604 44.5129 17.7631C43.4741 16.2658 42.0229 15.1504 40.1593 14.4171C38.3262 13.6531 36.1876 13.2712 33.7434 13.2712C31.3298 13.2712 29.176 13.6531 27.2818 14.4171C25.3876 15.1504 23.9058 16.2658 22.8365 17.7631C21.7672 19.2604 21.2325 21.155 21.2325 23.4468C21.2325 25.7386 21.7672 27.6332 22.8365 29.1305C23.9058 30.6278 25.3876 31.7432 27.2818 32.4765C29.176 33.2099 31.3298 33.5766 33.7434 33.5766Z" fill="#232830"/>
<path d="M30.7646 70.6581H36.7222V81.7963H30.7646V70.6581ZM33.7434 73.2249C29.8023 73.2249 26.4263 72.6138 23.6156 71.3915C20.8354 70.1386 18.6967 68.3663 17.1997 66.0745C15.7332 63.7827 15 61.0325 15 57.824C15 54.5849 15.7332 51.8194 17.1997 49.5276C18.6967 47.2358 20.8354 45.4787 23.6156 44.2564C26.4263 43.0036 29.8023 42.3772 33.7434 42.3772C37.7151 42.3772 41.0911 43.0036 43.8713 44.2564C46.6515 45.4787 48.7748 47.2358 50.2413 49.5276C51.7383 51.8194 52.4869 54.5849 52.4869 57.824C52.4869 61.0325 51.7383 63.7827 50.2413 66.0745C48.7748 68.3663 46.6515 70.1386 43.8713 71.3915C41.0911 72.6138 37.7151 73.2249 33.7434 73.2249ZM33.7434 67.9538C36.1876 67.9538 38.3262 67.5871 40.1593 66.8537C42.0229 66.1203 43.4741 65.005 44.5129 63.5076C45.5822 62.0103 46.1168 60.1158 46.1168 57.824C46.1168 55.5321 45.5822 53.6376 44.5129 52.1403C43.4741 50.6429 42.0229 49.5276 40.1593 48.7942C38.3262 48.0303 36.1876 47.6483 33.7434 47.6483C31.3298 47.6483 29.176 48.0303 27.2818 48.7942C25.3876 49.5276 23.9058 50.6429 22.8365 52.1403C21.7672 53.6376 21.2325 55.5321 21.2325 57.824C21.2325 60.1158 21.7672 62.0103 22.8365 63.5076C23.9058 65.005 25.3876 66.1203 27.2818 66.8537C29.176 67.5871 31.3298 67.9538 33.7434 67.9538Z" fill="#232830"/>
<path d="M44.854 82V76.1941L52.5429 76.1941V82H44.854Z" fill="#232830"/>
</svg>
